<?xml version="1.0" encoding="UTF-8"?><svg id="a" xmlns="http://www.w3.org/2000/svg" viewBox="0 0 16 16"><path d="M.05,10.98c0-1.75,1.16-2.82,2.95-3.22l.06,.1c-1.24,.42-2.1,1.26-2.1,2.52,0,2.29,3.09,3.96,7.05,3.96s7.05-1.68,7.05-3.96c0-1.26-.86-2.1-2.1-2.52l.06-.1c1.79,.4,2.95,1.47,2.95,3.22,0,2.61-3.58,4.67-7.96,4.67S.05,13.59,.05,10.98ZM3.31,4.2c0-1.09,.46-2.34,1.94-3.24l.09,.11c-.76,.76-1.09,1.68-1.09,2.48s.38,1.6,.86,2.53c.49,.91,.78,1.83,.78,2.48,0,1.11-.4,2.36-1.9,3.26l-.1-.11c.76-.76,1.05-1.7,1.05-2.48s-.36-1.62-.86-2.53c-.48-.91-.78-1.83-.78-2.5Zm3.28-.27c0-1.24,.44-2.67,1.98-3.68l.09,.13c-.78,.86-1.09,1.9-1.09,2.8s.36,1.81,.86,2.86c.49,1.05,.82,2.06,.82,2.82,0,1.24-.44,2.65-1.98,3.66l-.1-.11c.78-.88,1.09-1.92,1.09-2.82s-.36-1.81-.86-2.86c-.5-1.03-.82-2.06-.82-2.8Zm3.41,.27c0-1.09,.44-2.34,1.92-3.24l.1,.11c-.76,.76-1.07,1.68-1.07,2.48s.38,1.6,.86,2.53c.49,.91,.78,1.83,.78,2.48,0,1.11-.42,2.36-1.92,3.26l-.1-.11c.76-.76,1.07-1.7,1.07-2.48s-.36-1.62-.86-2.53c-.48-.91-.78-1.83-.78-2.5Z"/></svg>